<svg width="1200" height="1200" viewBox="0 0 1200 1200" fill="none" xmlns="http://www.w3.org/2000/svg">
<path d="M600 1200C931.371 1200 1200 931.371 1200 600C1200 268.629 931.371 0 600 0C268.629 0 0 268.629 0 600C0 931.371 268.629 1200 600 1200Z" fill="url(#paint0_linear_1755_86)"/>
<g filter="url(#filter0_d_1755_86)">
<path d="M406.157 973.75C393.686 973.727 381.435 970.457 370.61 964.264C346.235 950.451 331.082 923.639 331.082 894.531V305.468C331.082 276.279 346.235 249.548 370.61 235.736C381.693 229.366 394.283 226.091 407.064 226.252C419.846 226.413 432.349 230.004 443.268 236.65L946.713 538.006C957.205 544.585 965.855 553.721 971.851 564.557C977.846 575.393 980.991 587.575 980.991 599.959C980.991 612.343 977.846 624.525 971.851 635.361C965.855 646.197 957.205 655.333 946.713 661.912L443.187 963.35C432.013 970.105 419.214 973.7 406.157 973.75Z" fill="url(#paint1_linear_1755_86)"/>
</g>
<defs>
<filter id="filter0_d_1755_86" x="320.282" y="224.446" width="661.509" height="759.104" filterUnits="userSpaceOnUse" color-interpolation-filters="sRGB">
<feFlood flood-opacity="0" result="BackgroundImageFix"/>
<feColorMatrix in="SourceAlpha" type="matrix" values="0 0 0 0 0 0 0 0 0 0 0 0 0 0 0 0 0 0 127 0" result="hardAlpha"/>
<feOffset dx="-5" dy="4"/>
<feGaussianBlur stdDeviation="2.9"/>
<feComposite in2="hardAlpha" operator="out"/>
<feColorMatrix type="matrix" values="0 0 0 0 0 0 0 0 0 0 0 0 0 0 0 0 0 0 0.4 0"/>
<feBlend mode="normal" in2="BackgroundImageFix" result="effect1_dropShadow_1755_86"/>
<feBlend mode="normal" in="SourceGraphic" in2="effect1_dropShadow_1755_86" result="shape"/>
</filter>
<linearGradient id="paint0_linear_1755_86" x1="600" y1="0" x2="600" y2="1200" gradientUnits="userSpaceOnUse">
<stop stop-color="#5D9EFD"/>
<stop offset="0.25" stop-color="#3779FA"/>
<stop offset="0.5" stop-color="#3779FA"/>
<stop offset="0.75" stop-color="#1944DC"/>
<stop offset="1" stop-color="#1B39B2"/>
</linearGradient>
<linearGradient id="paint1_linear_1755_86" x1="656.037" y1="226.246" x2="656.037" y2="973.75" gradientUnits="userSpaceOnUse">
<stop stop-color="white"/>
<stop offset="0.25" stop-color="#F0F0F0"/>
<stop offset="0.5" stop-color="#D9D9D9"/>
<stop offset="0.75" stop-color="#C5C5C5"/>
<stop offset="1" stop-color="#8E8E8E"/>
</linearGradient>
</defs>
</svg>
