<svg width="300" height="300" viewBox="0 0 300 300" fill="none" xmlns="http://www.w3.org/2000/svg">
<path d="M150 300C232.843 300 300 232.843 300 150C300 67.1573 232.843 0 150 0C67.1573 0 0 67.1573 0 150C0 232.843 67.1573 300 150 300Z" fill="#00FF35"/>
<mask id="mask0_1733_122" style="mask-type:luminance" maskUnits="userSpaceOnUse" x="28" y="71" width="244" height="158">
<path d="M271.875 228.75V71.25H28.125V228.75H271.875Z" fill="white"/>
</mask>
<g mask="url(#mask0_1733_122)">
<path d="M80.6985 149.72C80.6979 149.257 80.8095 148.797 81.0267 148.368L119.022 73.4975C119.469 72.6127 120.335 71.9065 121.431 71.5346C122.526 71.1628 123.761 71.1547 124.863 71.5137C125.965 71.8722 126.845 72.5676 127.308 73.4471C127.772 74.326 127.781 75.3171 127.335 76.202L90.0386 149.697L128.209 222.618C128.615 223.489 128.584 224.454 128.123 225.308C127.662 226.162 126.807 226.839 125.738 227.198C124.668 227.557 123.467 227.57 122.386 227.233C121.306 226.896 120.429 226.237 119.941 225.392L81.0481 151.107C80.8182 150.669 80.6985 150.197 80.6985 149.72Z" fill="black"/>
<path d="M112.894 87.574L43.1271 146.137H83.6961L112.894 87.574ZM30.5147 149.745C30.5113 149.176 30.626 148.614 30.8497 148.104C31.0734 147.594 31.3994 147.15 31.8023 146.807L121.033 71.912C121.595 71.4352 122.291 71.2014 122.993 71.2532C123.695 71.3049 124.357 71.6389 124.86 72.1943C125.372 72.7739 125.702 73.5254 125.801 74.3357C125.9 75.1459 125.762 75.9707 125.407 76.6839L88.0397 151.579C87.7821 152.106 87.4054 152.547 86.9471 152.857C86.4892 153.167 85.9664 153.334 85.4325 153.342H33.5749C32.9158 153.332 32.2768 153.082 31.7535 152.63C31.2302 152.178 30.8507 151.548 30.671 150.832C30.5739 150.478 30.5247 150.11 30.5247 149.739" fill="black"/>
<path d="M113.193 87.5977L43.4257 146.161H83.9948L113.193 87.5977ZM30.8129 149.769C30.8129 148.593 31.277 146.648 32.1009 145.961L121.321 71.912C121.884 71.4352 122.579 71.2014 123.281 71.2532C123.983 71.3049 124.646 71.6389 125.148 72.1943C125.666 72.7739 126.002 73.5297 126.103 74.3448C126.203 75.1599 126.064 75.99 125.706 76.7076L88.3379 151.603C88.0807 152.13 87.7036 152.571 87.2458 152.881C86.7879 153.191 86.265 153.358 85.7312 153.365H33.8736C33.2145 153.356 32.5755 153.106 32.0522 152.654C31.5288 152.202 31.1493 151.571 30.9696 150.856C30.8697 150.504 30.8172 150.138 30.8129 149.769Z" fill="black"/>
<path d="M84.3887 152.848H43.8296L113.612 211.487L84.3887 152.848ZM31.2067 149.239C31.2067 148.867 31.256 148.497 31.3525 148.14C31.5327 147.427 31.9122 146.798 32.4341 146.346C32.956 145.894 33.5936 145.643 34.2517 145.631H86.1298C86.6637 145.641 87.1856 145.809 87.6435 146.118C88.1013 146.428 88.4784 146.868 88.737 147.394L126.1 222.377C126.453 223.092 126.589 223.918 126.487 224.728C126.386 225.539 126.052 226.29 125.537 226.867C125.034 227.422 124.372 227.756 123.67 227.808C122.967 227.859 122.272 227.626 121.71 227.149L32.5101 152.178C32.1077 151.835 31.7822 151.39 31.5594 150.88C31.3367 150.37 31.223 149.808 31.2273 149.239" fill="black"/>
<path d="M84.0044 152.185H43.4454L113.228 210.823L84.0044 152.185ZM30.8225 148.576C30.8225 148.204 30.8717 147.833 30.9683 147.477C31.1484 146.764 31.5279 146.134 32.0499 145.682C32.5718 145.23 33.2093 144.98 33.8674 144.967H85.7456C86.2794 144.977 86.8014 145.145 87.2592 145.454C87.7171 145.764 88.0942 146.204 88.3527 146.731L125.715 221.713C126.069 222.429 126.205 223.255 126.103 224.065C126.002 224.876 125.668 225.627 125.152 226.204C124.65 226.759 123.988 227.093 123.285 227.144C122.583 227.196 121.887 226.962 121.325 226.485L31.3597 151.514C30.5357 150.833 30.8435 149.722 30.8435 148.576H30.8225Z" fill="black"/>
<path d="M124.898 79.9724L93.5669 144.96H250.615L124.898 79.9724ZM83.2393 148.511C83.2374 148.044 83.3448 147.582 83.5557 147.152L119.086 73.4426C119.314 72.9697 119.659 72.5456 120.096 72.1977C120.533 71.8499 121.052 71.5875 121.618 71.4279C122.183 71.2683 122.782 71.2153 123.374 71.272C123.966 71.3293 124.536 71.4958 125.046 71.7593L267.63 145.469C268.405 145.868 269.007 146.474 269.342 147.196C269.677 147.918 269.728 148.713 269.485 149.462C269.243 150.21 268.722 150.87 268.001 151.338C267.281 151.807 266.401 152.059 265.497 152.057H87.3769C86.8348 152.057 86.297 151.967 85.7956 151.788C85.2942 151.611 84.8384 151.35 84.4542 151.021C84.07 150.692 83.7647 150.3 83.5563 149.87C83.3478 149.439 83.2399 148.977 83.2393 148.511Z" fill="black"/>
<path d="M251.682 153.762H94.3968L125.997 218.757L251.682 153.762ZM83.5991 150.146C83.5991 149.458 84.2715 148.84 84.7356 148.251C85.1128 147.764 85.6249 147.364 86.2252 147.089C86.8261 146.812 87.4967 146.668 88.1777 146.668H263.737C265.593 146.668 267.096 143.976 269.485 146.666C269.983 148.197 270.266 152.428 268.679 153.248L126.191 226.966C125.682 227.229 125.113 227.394 124.522 227.452C123.932 227.51 123.334 227.458 122.769 227.301C122.204 227.143 121.686 226.883 121.25 226.536C120.813 226.191 120.47 225.767 120.241 225.296L84.1101 152.272C83.7834 151.598 83.6146 150.875 83.6127 150.146" fill="black"/>
</g>
</svg>
